<mxfile host="app.diagrams.net" modified="2023-05-31T16:11:03.751Z" agent="Mozilla/5.0 (Windows NT 10.0; Win64; x64) AppleWebKit/537.36 (KHTML, like Gecko) Chrome/113.0.0.0 Safari/537.36" version="21.3.6" etag="FDjWJPgFJsQ8F6nD1_8w" type="github">
  <diagram name="第 1 页" id="44bV2Q9HGSO3ZwIkV3fw">
    <mxGraphModel>
      <root>
        <mxCell id="0" />
        <mxCell id="1" parent="0" />
      </root>
    </mxGraphModel>
  </diagram>
</mxfile>
